PathFileType	4	(X/Y/Z)	C:/Users/opensim2020/Desktop/walking_exp_matlab/subject03_walking07_straight_04.trc	
DataRate	CameraRate	NumFrames	NumMarkers	Units	OrigDataRate	OrigDataStartFrame	OrigNumFrames	
100.00	100.00	8	46	mm	100.00	3124	265	
Frame#	Time	LFHD			RFHD			LBHD			RBHD			C7			T10			CLAV			STRN			RBAK			LSHO			LUPA			LELB			LFRM			LWRA			LWRB			LFIN			RSHO			RUPA			RELB			RFRM			RWRA			RWRB			RFIN			LASI			RASI			LPSI			RPSI			LTHI			LKNE			LTIB			LANK			LHEE			LTOE			RTHI			RKNE			RTIB			RANK			RHEE			RTOE			*39			*40			*41			*42			*43			*44			*45			
		X1	Y1	Z1	X2	Y2	Z2	X3	Y3	Z3	X4	Y4	Z4	X5	Y5	Z5	X6	Y6	Z6	X7	Y7	Z7	X8	Y8	Z8	X9	Y9	Z9	X10	Y10	Z10	X11	Y11	Z11	X12	Y12	Z12	X13	Y13	Z13	X14	Y14	Z14	X15	Y15	Z15	X16	Y16	Z16	X17	Y17	Z17	X18	Y18	Z18	X19	Y19	Z19	X20	Y20	Z20	X21	Y21	Z21	X22	Y22	Z22	X23	Y23	Z23	X24	Y24	Z24	X25	Y25	Z25	X26	Y26	Z26	X27	Y27	Z27	X28	Y28	Z28	X29	Y29	Z29	X30	Y30	Z30	X31	Y31	Z31	X32	Y32	Z32	X33	Y33	Z33	X34	Y34	Z34	X35	Y35	Z35	X36	Y36	Z36	X37	Y37	Z37	X38	Y38	Z38	X39	Y39	Z39	X40	Y40	Z40	X41	Y41	Z41	X42	Y42	Z42	X43	Y43	Z43	X44	Y44	Z44	X45	Y45	Z45	X46	Y46	Z46	

166	1.650	-945.55383	-515.07349	1596.30029	-1077.70764	-504.88162	1603.21277	-940.34113	-383.00897	1567.43152	-1070.90576	-377.68140	1573.43896	-999.33350	-334.40891	1406.31213	-1002.53125	-296.42352	1090.31091	-1005.99335	-453.77524	1326.51025	-999.43988	-495.08066	1162.70740	-1093.86926	-273.60550	1228.89502	-850.17651	-419.41986	1364.66650	-771.48560	-459.23151	1179.43970	-758.56641	-506.32803	1066.51404	-771.61530	-584.45868	964.38116	-814.38281	-649.17926	870.23230	-760.88635	-635.70325	862.83221	-778.09869	-691.61957	803.75183	-1164.38647	-402.09460	1349.35571	-1239.58374	-388.53638	1127.97534	-1256.31702	-397.58890	1015.85864	-1262.63135	-406.41571	879.19250	-1231.61633	-433.02182	781.66364	-1274.34534	-399.45309	779.24628	-1266.93909	-419.21112	707.10919	-880.53101	-464.10025	930.86658	-1119.09558	-471.11807	927.81909	-936.44647	-304.15237	950.50677	-1084.92297	-308.56586	949.51611	-851.30652	-378.62228	631.54004	-891.58618	-352.51230	455.49448	-892.47388	-264.95926	276.95203	-936.06500	-202.51880	76.26765	-972.49548	-156.96127	46.37986	-956.17456	-350.18283	29.68219	-1174.03967	-483.00186	637.21912	-1141.83740	-564.61542	475.65359	-1147.49255	-563.04230	287.19055	-1107.28723	-594.13635	70.79147	-1049.80957	-561.46094	34.69648	-1101.09827	-737.12140	51.56050	-989.98596	-437.61157	1667.27734																		 
167	1.660	-946.39801	-524.18170	1595.46582	-1078.54053	-513.99493	1602.23596	-941.22382	-392.13940	1566.31763	-1071.87854	-386.90500	1572.14270	-1000.33917	-343.71667	1405.28162	-1003.51849	-305.64984	1089.22888	-1006.59363	-463.16843	1325.34058	-999.83179	-504.30450	1161.48425	-1094.87537	-283.15909	1227.90637	-850.98529	-428.42545	1363.47363	-772.30511	-468.84665	1178.68262	-759.42407	-516.57654	1066.07983	-772.87982	-596.09845	965.17139	-816.23438	-662.09937	872.22931	-762.70135	-648.92377	864.41644	-780.23206	-705.84937	806.47949	-1165.09265	-411.90378	1348.27979	-1240.17883	-397.20462	1126.94434	-1256.99805	-405.32715	1014.78534	-1263.44263	-412.83966	878.03656	-1232.44824	-438.76465	780.33765	-1275.22705	-404.84808	778.14569	-1267.91772	-423.78439	705.72919	-881.05579	-473.34000	930.17120	-1119.46704	-480.94922	926.51434	-937.49658	-313.21521	949.26428	-1085.94812	-318.26245	948.11621	-851.42487	-385.55341	631.13599	-891.64758	-357.87186	455.34552	-892.60406	-268.05426	277.64545	-936.10260	-203.30681	77.41299	-972.45087	-157.85315	47.84410	-956.24622	-350.14380	29.59696	-1174.93896	-489.15225	634.36072	-1141.14819	-571.21747	473.22940	-1147.67212	-576.03021	286.02985	-1108.98267	-616.61969	70.88812	-1051.29199	-585.26172	34.12944	-1102.33154	-760.85303	54.53540	-990.65912	-446.38187	1666.38489																		 
168	1.670	-947.20898	-533.31262	1594.73889	-1079.37659	-523.23804	1601.34778	-942.15173	-401.41257	1565.29504	-1072.73376	-396.21045	1570.98975	-1001.23383	-353.12143	1404.32495	-1004.64001	-315.00430	1088.24548	-1007.21417	-472.64691	1324.34082	-1000.24707	-513.63031	1160.40100	-1095.86121	-292.82153	1226.92493	-851.81598	-437.41513	1362.43420	-773.21820	-478.24200	1177.89355	-760.33215	-526.62152	1065.60742	-774.17767	-607.43945	965.90784	-818.05914	-674.71252	874.16510	-764.56946	-661.59406	865.86182	-782.37799	-719.51941	809.04083	-1165.90198	-421.71887	1347.32690	-1240.76672	-406.01126	1126.00818	-1257.60974	-413.26050	1013.75903	-1264.18201	-419.49326	876.97913	-1233.34607	-444.51123	778.90991	-1276.10583	-410.51498	777.13824	-1268.76819	-428.60440	704.46637	-880.86206	-481.74982	929.05151	-1119.83618	-490.91202	925.31201	-938.66455	-322.35858	948.22632	-1087.11902	-328.17795	946.95984	-851.58093	-392.70117	630.81403	-891.61426	-363.55487	455.11386	-892.63556	-271.41885	278.47452	-936.11676	-203.89890	79.04866	-972.43408	-158.20891	49.96684	-956.22894	-350.30875	29.58600	-1176.43005	-495.97974	632.36102	-1140.81152	-577.94281	470.98611	-1147.90173	-588.45660	285.06491	-1110.60791	-636.90631	71.19756	-1052.76038	-606.73767	33.54964	-1103.36804	-782.12030	58.15156	-991.64764	-455.39642	1665.34106																		 
169	1.680	-948.07855	-542.62744	1594.06543	-1080.23987	-532.59326	1600.55237	-942.98444	-410.75204	1564.39905	-1073.74768	-405.61639	1570.05139	-1002.15857	-362.62698	1403.31287	-1005.70508	-324.48105	1087.36462	-1007.90613	-482.13168	1323.46094	-1000.66998	-523.07324	1159.51746	-1096.84863	-302.56525	1225.95386	-852.63593	-446.45856	1361.52502	-774.20099	-487.53256	1177.15515	-761.34979	-536.30481	1065.11646	-775.45850	-618.21503	966.40100	-819.88947	-686.79199	875.89337	-766.40631	-673.75348	867.15027	-784.39746	-732.50922	811.31616	-1166.70410	-431.57108	1346.42114	-1241.42749	-414.98077	1125.17285	-1258.15320	-421.44067	1012.81458	-1264.92798	-426.37109	876.02063	-1234.29004	-450.64374	777.72656	-1276.91772	-416.52640	776.24542	-1269.58093	-433.77466	703.28540	-881.00916	-490.71179	928.21350	-1120.25220	-501.06458	924.28961	-940.14862	-331.58493	947.34320	-1088.35913	-338.21088	946.00153	-851.75079	-399.94009	630.58673	-891.54694	-369.57913	455.09576	-892.58691	-275.11484	279.38358	-935.90619	-204.94754	80.92828	-972.15753	-158.48886	52.57362	-956.28082	-350.36636	29.56973	-1176.65894	-502.99496	630.40137	-1140.65430	-584.93781	468.93091	-1148.14417	-600.11255	284.28116	-1111.60559	-654.90088	71.61340	-1053.93909	-625.78461	33.04559	-1104.13293	-800.75452	61.99510	-992.53064	-464.60950	1664.51978																		 
170	1.690	-948.89252	-551.89630	1593.49536	-1081.14600	-542.02063	1599.90015	-944.07532	-419.95142	1563.68408	-1074.62439	-415.05505	1569.21606	-1003.29791	-372.06552	1402.59229	-1006.93420	-334.14691	1086.57434	-1008.63354	-491.71405	1322.75562	-1001.17377	-532.75726	1158.80444	-1097.82776	-312.46213	1225.01025	-853.48480	-455.47382	1360.70984	-775.21448	-496.70044	1176.51416	-762.48438	-545.81219	1064.65674	-776.79364	-628.70923	966.92664	-821.59308	-698.48639	877.55859	-768.22809	-685.39307	868.29877	-786.41223	-744.85760	813.37805	-1167.61304	-441.46051	1345.68518	-1242.05298	-424.07739	1124.43225	-1258.78943	-429.79123	1012.00946	-1265.68909	-433.56689	875.15680	-1235.12292	-457.04962	776.64838	-1277.75916	-422.81189	775.47644	-1270.32385	-439.24557	702.29260	-881.33380	-499.95200	927.55011	-1120.66382	-511.35626	923.50421	-941.37512	-341.21210	946.50397	-1089.69019	-348.33191	945.34637	-851.88312	-407.43436	630.49023	-891.28479	-375.92624	454.87393	-892.47858	-279.09290	280.35306	-935.60748	-206.02739	82.80276	-971.97528	-159.29071	55.07145	-956.20502	-350.60254	29.60766	-1176.84558	-510.67871	629.07758	-1140.72253	-592.19250	467.23270	-1148.42712	-611.10620	283.60690	-1112.11755	-670.52423	71.73357	-1054.69910	-642.21814	32.60632	-1104.51929	-816.83313	65.11449	-993.54102	-473.86328	1663.85669																		 
171	1.700	-949.55322	-561.26373	1592.99634	-1081.91089	-551.53491	1599.31787	-944.93530	-429.46970	1563.06177	-1075.65808	-424.61826	1568.58923	-1004.41925	-381.54422	1401.90491	-1008.05853	-344.09305	1085.79651	-1009.45020	-501.34872	1322.15637	-1001.75665	-542.47540	1158.25061	-1098.82507	-322.37149	1224.11633	-854.36145	-464.61768	1360.12537	-776.30054	-505.65997	1175.82532	-763.64941	-555.00317	1064.13367	-778.15131	-638.75848	967.32843	-823.32623	-709.61035	878.97290	-770.05542	-696.40930	869.24768	-788.35406	-756.60681	815.14197	-1168.75244	-451.24097	1345.12976	-1242.80920	-433.34836	1123.76233	-1259.54114	-438.35010	1011.27875	-1266.37427	-441.06049	874.38953	-1235.90051	-463.73795	775.61053	-1278.55298	-429.46265	774.81671	-1271.00427	-445.06412	701.36743	-881.78302	-509.34494	926.87909	-1121.12134	-521.81329	922.89557	-942.80713	-350.92859	945.81116	-1091.03870	-358.64291	944.88617	-852.08545	-415.22711	630.39093	-891.02460	-382.85233	454.70459	-892.28302	-283.51035	281.41855	-935.23334	-207.17296	84.96941	-971.54987	-159.91727	58.11478	-956.17786	-350.79083	29.57353	-1176.49146	-519.09137	628.14404	-1140.39270	-599.83148	465.88980	-1148.63696	-621.09631	282.98657	-1112.46497	-683.64929	71.68082	-1055.15637	-655.87903	32.16641	-1104.47400	-830.31781	66.93060	-994.78839	-483.06201	1663.99158																		 
172	1.710	-950.36578	-570.74030	1592.66479	-1082.74731	-561.14490	1598.92468	-945.95227	-438.85574	1562.63696	-1076.58240	-434.25183	1568.12097	-1005.52490	-391.21942	1401.32275	-1009.40692	-354.02850	1085.22607	-1010.31055	-511.08710	1321.73071	-1002.41833	-552.39410	1157.87805	-1099.87842	-332.47351	1223.34473	-855.21625	-473.79477	1359.60645	-777.43311	-514.48315	1175.22485	-764.89709	-563.96747	1063.60107	-779.55560	-648.48383	967.61615	-824.98096	-720.30341	880.24591	-771.86224	-706.92676	869.96100	-790.22229	-767.71051	816.60822	-1169.63306	-461.27206	1344.45544	-1243.55151	-442.74600	1123.15833	-1260.22473	-447.13309	1010.64508	-1267.14270	-448.83942	873.71564	-1236.60730	-470.79678	774.73853	-1279.27734	-436.49966	774.20770	-1271.62048	-451.24887	700.57452	-882.31342	-518.99506	926.30603	-1121.61780	-532.43231	922.47522	-944.15723	-360.84268	945.33667	-1092.34192	-369.05453	944.66144	-852.40863	-423.52258	630.30298	-890.84918	-390.30545	454.56558	-892.03345	-288.27914	282.53653	-934.78558	-208.49741	87.56507	-971.05878	-160.83417	61.39880	-956.20605	-351.01273	29.54923	-1175.93701	-528.37872	627.59125	-1140.18433	-607.96271	464.91287	-1148.73279	-630.12769	282.25674	-1112.81519	-693.93805	71.32222	-1055.39624	-666.40247	31.40566	-1103.92603	-840.98181	67.16788	-995.26086	-492.81796	1662.91479																		 
173	1.720	-951.14758	-580.19666	1592.25500	-1083.54114	-570.81982	1598.61292	-947.17877	-448.25229	1562.43054	-1077.69580	-443.93268	1567.85754	-1006.87524	-400.87274	1400.83826	-1010.53320	-364.25885	1084.70105	-1011.22998	-520.84412	1321.45825	-1003.18335	-562.49170	1157.67102	-1101.05981	-342.60501	1222.60791	-856.12811	-482.99976	1359.27246	-778.58478	-523.19604	1174.56262	-766.13934	-572.64270	1063.04297	-780.90173	-657.75659	967.74957	-826.57385	-730.51965	881.29803	-773.64081	-716.89758	870.46014	-792.02472	-778.15393	817.75513	-1170.68286	-471.22836	1344.06482	-1244.35315	-452.25540	1122.69055	-1260.88867	-456.16687	1010.10193	-1267.81641	-456.96771	873.17419	-1237.34167	-478.18262	773.99268	-1280.02075	-443.88348	773.72345	-1272.22363	-457.87097	699.86029	-883.03589	-528.88263	925.84363	-1122.24011	-543.15546	922.21790	-945.48468	-371.00937	944.86725	-1093.63818	-379.65784	944.64844	-852.74988	-432.29941	630.12811	-890.61670	-398.51202	454.32300	-891.72400	-293.50500	283.73642	-934.27124	-210.18513	90.32912	-970.51855	-161.88210	65.00275	-956.16888	-350.86115	29.07667	-1175.84045	-538.70020	627.65985	-1139.97961	-616.72144	464.25967	-1148.76941	-638.25635	281.39996	-1112.79260	-701.65771	70.21217	-1055.60962	-673.69818	30.40262	-1102.78455	-848.75940	65.68484	-996.14752	-502.39185	1662.67163																		 
